<svg viewBox="0 0 900 1020" xmlns="http://www.w3.org/2000/svg" font-family="monospace" style="background:#111009">

<!-- Background axis bands -->
<rect x="0" y="55" width="900" height="135" fill="#1c1a14"/>
<rect x="0" y="215" width="900" height="320" fill="#0d1a1f"/>
<rect x="0" y="560" width="900" height="295" fill="#0d1f0d"/>
<rect x="0" y="875" width="900" height="145" fill="#1a1520"/>

<!-- Axis band labels -->
<text x="880" y="284" text-anchor="end" font-size="9" fill="#7fb8cb" letter-spacing="2" transform="rotate(-90,880,284)">AXIS 1 — AGENCY</text>
<text x="880" y="560" text-anchor="end" font-size="9" fill="#8ec48e" letter-spacing="2" transform="rotate(-90,880,560)">AXIS 2 — CONTRIBUTION</text>
<text x="880" y="820" text-anchor="end" font-size="9" fill="#b898c8" letter-spacing="2" transform="rotate(-90,880,820)">AXIS 3 — RADIUS</text>

<!-- ─── ARROW MARKERS ─── -->
<defs>
  <marker id="arr"  markerWidth="7" markerHeight="7" refX="6" refY="3.5" orient="auto"><path d="M0,0 L7,3.5 L0,7 Z" fill="#4a4438"/></marker>
  <marker id="arrA" markerWidth="7" markerHeight="7" refX="6" refY="3.5" orient="auto"><path d="M0,0 L7,3.5 L0,7 Z" fill="#7fb8cb"/></marker>
  <marker id="arrB" markerWidth="7" markerHeight="7" refX="6" refY="3.5" orient="auto"><path d="M0,0 L7,3.5 L0,7 Z" fill="#8ec48e"/></marker>
  <marker id="arrC" markerWidth="7" markerHeight="7" refX="6" refY="3.5" orient="auto"><path d="M0,0 L7,3.5 L0,7 Z" fill="#b898c8"/></marker>
</defs>

<!-- ─── LEGEND ─── -->
<rect x="30" y="10" width="10" height="10" rx="2" fill="#111009" stroke="#4a4438" stroke-width="1"/>
<text x="46" y="20" font-size="9" fill="#9a9080">start / end</text>
<rect x="130" y="10" width="10" height="10" rx="2" fill="#111009" stroke="#ede6d8" stroke-width="1"/>
<text x="146" y="20" font-size="9" fill="#9a9080">question</text>
<rect x="220" y="10" width="10" height="10" rx="2" fill="none" stroke="#4a4438" stroke-width="1" stroke-dasharray="3 2"/>
<text x="236" y="20" font-size="9" fill="#9a9080">decision (hidden)</text>
<rect x="360" y="10" width="10" height="10" rx="2" fill="#2a2010" stroke="#c8a96a" stroke-width="1"/>
<text x="376" y="20" font-size="9" fill="#9a9080">reflection</text>
<rect x="450" y="10" width="10" height="10" rx="2" fill="#1c1a14" stroke="#4a4438" stroke-width="1"/>
<text x="466" y="20" font-size="9" fill="#9a9080">bridge / summary</text>
<text x="590" y="20" font-size="9" fill="#9a9080">◆ signal recorded</text>

<!-- ══════════════════════════════════════════════════════════
     START
══════════════════════════════════════════════════════════ -->
<rect x="330" y="58" width="240" height="44" rx="6" fill="#111009" stroke="#4a4438" stroke-width="1"/>
<text x="450" y="75" text-anchor="middle" font-size="9" fill="#4a4438" letter-spacing="1">START</text>
<text x="450" y="93" text-anchor="middle" font-size="12" font-weight="bold" fill="#ede6d8">Good evening…</text>

<!-- START → OPEN_Q -->
<line x1="450" y1="102" x2="450" y2="118" stroke="#4a4438" stroke-width="1.2" marker-end="url(#arr)"/>

<!-- ══════════════════════════════════════════════════════════
     OPEN_Q
══════════════════════════════════════════════════════════ -->
<rect x="310" y="119" width="280" height="44" rx="6" fill="#111009" stroke="#ede6d8" stroke-width="1"/>
<text x="450" y="136" text-anchor="middle" font-size="9" fill="#9a9080" letter-spacing="1">OPEN_Q  question</text>
<text x="450" y="155" text-anchor="middle" font-size="12" font-weight="bold" fill="#ede6d8">If today had a title…</text>

<!-- OPEN_Q → OPEN_D -->
<line x1="450" y1="163" x2="450" y2="178" stroke="#4a4438" stroke-width="1.2" marker-end="url(#arr)"/>

<!-- ══════════════════════════════════════════════════════════
     OPEN_D  (hidden decision)
══════════════════════════════════════════════════════════ -->
<rect x="376" y="179" width="148" height="24" rx="4" fill="none" stroke="#2e2b21" stroke-width="1" stroke-dasharray="4 3"/>
<text x="450" y="195" text-anchor="middle" font-size="9" fill="#4a4438">OPEN_D  decision</text>

<!-- Split line -->
<line x1="450" y1="203" x2="450" y2="211" stroke="#4a4438" stroke-width="1"/>
<line x1="200" y1="211" x2="700" y2="211" stroke="#2e2b21" stroke-width="1"/>

<!-- branch labels -->
<text x="280" y="224" text-anchor="middle" font-size="8" fill="#7fb8cb">positive day</text>
<text x="620" y="224" text-anchor="middle" font-size="8" fill="#7fb8cb">negative day</text>

<line x1="200" y1="211" x2="200" y2="229" stroke="#7fb8cb" stroke-width="1.2" marker-end="url(#arrA)"/>
<line x1="700" y1="211" x2="700" y2="229" stroke="#7fb8cb" stroke-width="1.2" marker-end="url(#arrA)"/>

<!-- ══════════════════════════════════════════════════════════
     AXIS 1 — left branch (positive)
══════════════════════════════════════════════════════════ -->
<rect x="60" y="230" width="280" height="44" rx="6" fill="#111009" stroke="#7fb8cb" stroke-width="1.2"/>
<text x="200" y="247" text-anchor="middle" font-size="9" fill="#7fb8cb" letter-spacing="1">A1_Q1_POS  question</text>
<text x="200" y="266" text-anchor="middle" font-size="12" font-weight="bold" fill="#ede6d8">What made the difference?</text>

<!-- A1_Q1_POS → decision -->
<line x1="200" y1="274" x2="200" y2="288" stroke="#4a4438" stroke-width="1"/>
<rect x="136" y="289" width="128" height="22" rx="3" fill="none" stroke="#2e2b21" stroke-width="1" stroke-dasharray="3 2"/>
<text x="200" y="304" text-anchor="middle" font-size="8" fill="#4a4438">A1_D1_POS  decision</text>

<!-- ══════════════════════════════════════════════════════════
     AXIS 1 — right branch (negative)
══════════════════════════════════════════════════════════ -->
<rect x="560" y="230" width="280" height="44" rx="6" fill="#111009" stroke="#7fb8cb" stroke-width="1.2"/>
<text x="700" y="247" text-anchor="middle" font-size="9" fill="#7fb8cb" letter-spacing="1">A1_Q1_NEG  question</text>
<text x="700" y="266" text-anchor="middle" font-size="12" font-weight="bold" fill="#ede6d8">What was your first instinct?</text>

<!-- A1_Q1_NEG → decision -->
<line x1="700" y1="274" x2="700" y2="288" stroke="#4a4438" stroke-width="1"/>
<rect x="636" y="289" width="128" height="22" rx="3" fill="none" stroke="#2e2b21" stroke-width="1" stroke-dasharray="3 2"/>
<text x="700" y="304" text-anchor="middle" font-size="8" fill="#4a4438">A1_D1_NEG  decision</text>

<!-- Both decisions split to INT / EXT -->
<line x1="200" y1="311" x2="200" y2="318" stroke="#4a4438" stroke-width="1"/>
<line x1="700" y1="311" x2="700" y2="318" stroke="#4a4438" stroke-width="1"/>

<!-- crossover lines to reach INT (330) and EXT (570) -->
<line x1="130" y1="318" x2="450" y2="318" stroke="#2e2b21" stroke-width="0.8" stroke-dasharray="3 3"/>
<line x1="450" y1="318" x2="770" y2="318" stroke="#2e2b21" stroke-width="0.8" stroke-dasharray="3 3"/>
<line x1="330" y1="318" x2="330" y2="333" stroke="#7fb8cb" stroke-width="1.3" marker-end="url(#arrA)"/>
<line x1="570" y1="318" x2="570" y2="333" stroke="#7fb8cb" stroke-width="1.3" marker-end="url(#arrA)"/>

<text x="255" y="330" font-size="8" fill="#7fb8cb">internal</text>
<text x="577" y="330" font-size="8" fill="#7fb8cb">external</text>

<!-- ══════════════════════════════════════════════════════════
     A1_Q2_INT
══════════════════════════════════════════════════════════ -->
<rect x="185" y="334" width="290" height="52" rx="6" fill="#111009" stroke="#7fb8cb" stroke-width="1.6"/>
<text x="330" y="352" text-anchor="middle" font-size="9" fill="#7fb8cb" letter-spacing="1">A1_Q2_INT  question  ◆</text>
<text x="330" y="368" text-anchor="middle" font-size="11" font-weight="bold" fill="#ede6d8">How clearly did you see</text>
<text x="330" y="381" text-anchor="middle" font-size="11" font-weight="bold" fill="#ede6d8">your influence in the moment?</text>

<!-- ══════════════════════════════════════════════════════════
     A1_Q2_EXT
══════════════════════════════════════════════════════════ -->
<rect x="425" y="334" width="290" height="52" rx="6" fill="#111009" stroke="#7fb8cb" stroke-width="1.6"/>
<text x="570" y="352" text-anchor="middle" font-size="9" fill="#7fb8cb" letter-spacing="1">A1_Q2_EXT  question  ◆</text>
<text x="570" y="368" text-anchor="middle" font-size="11" font-weight="bold" fill="#ede6d8">Which moment would you</text>
<text x="570" y="381" text-anchor="middle" font-size="11" font-weight="bold" fill="#ede6d8">replay differently?</text>

<line x1="330" y1="386" x2="330" y2="402" stroke="#7fb8cb" stroke-width="1.3" marker-end="url(#arrA)"/>
<line x1="570" y1="386" x2="570" y2="402" stroke="#7fb8cb" stroke-width="1.3" marker-end="url(#arrA)"/>

<!-- ══════════════════════════════════════════════════════════
     A1_R_INT
══════════════════════════════════════════════════════════ -->
<rect x="185" y="403" width="290" height="44" rx="6" fill="#2a2010" stroke="#c8a96a" stroke-width="1"/>
<text x="330" y="420" text-anchor="middle" font-size="9" fill="#c8a96a" letter-spacing="1">A1_R_INT  reflection  ◆</text>
<text x="330" y="439" text-anchor="middle" font-size="11" fill="#ede6d8">You stayed in the driver's seat…</text>

<!-- ══════════════════════════════════════════════════════════
     A1_R_EXT
══════════════════════════════════════════════════════════ -->
<rect x="425" y="403" width="290" height="44" rx="6" fill="#2a2010" stroke="#c8a96a" stroke-width="1"/>
<text x="570" y="420" text-anchor="middle" font-size="9" fill="#c8a96a" letter-spacing="1">A1_R_EXT  reflection  ◆</text>
<text x="570" y="439" text-anchor="middle" font-size="11" fill="#ede6d8">Attention flows outward on hard days…</text>

<!-- Converge → BRIDGE_1_2 -->
<line x1="330" y1="447" x2="330" y2="462" stroke="#7fb8cb" stroke-width="1"/>
<line x1="570" y1="447" x2="570" y2="462" stroke="#7fb8cb" stroke-width="1"/>
<line x1="330" y1="462" x2="570" y2="462" stroke="#7fb8cb" stroke-width="1"/>
<line x1="450" y1="462" x2="450" y2="473" stroke="#8ec48e" stroke-width="1.4" marker-end="url(#arrB)"/>

<!-- ══════════════════════════════════════════════════════════
     BRIDGE_1_2
══════════════════════════════════════════════════════════ -->
<rect x="310" y="474" width="280" height="36" rx="6" fill="#1c1a14" stroke="#2e2b21" stroke-width="1"/>
<text x="450" y="489" text-anchor="middle" font-size="9" fill="#4a4438" letter-spacing="1">BRIDGE_1_2  bridge</text>
<text x="450" y="504" text-anchor="middle" font-size="11" fill="#9a9080">Not how you handled it — what you brought.</text>

<line x1="450" y1="510" x2="450" y2="524" stroke="#8ec48e" stroke-width="1.4" marker-end="url(#arrB)"/>

<!-- ══════════════════════════════════════════════════════════
     A2_Q1
══════════════════════════════════════════════════════════ -->
<rect x="310" y="525" width="280" height="44" rx="6" fill="#111009" stroke="#8ec48e" stroke-width="1.2"/>
<text x="450" y="542" text-anchor="middle" font-size="9" fill="#8ec48e" letter-spacing="1">A2_Q1  question</text>
<text x="450" y="561" text-anchor="middle" font-size="12" font-weight="bold" fill="#ede6d8">Which interaction came up most?</text>

<!-- A2_Q1 → decision → split -->
<line x1="450" y1="569" x2="450" y2="578" stroke="#4a4438" stroke-width="1"/>
<rect x="376" y="579" width="148" height="22" rx="3" fill="none" stroke="#2e2b21" stroke-width="1" stroke-dasharray="3 2"/>
<text x="450" y="594" text-anchor="middle" font-size="8" fill="#4a4438">A2_D1  decision</text>
<line x1="450" y1="601" x2="450" y2="607" stroke="#4a4438" stroke-width="1"/>
<line x1="270" y1="607" x2="630" y2="607" stroke="#2e2b21" stroke-width="1"/>
<line x1="270" y1="607" x2="270" y2="622" stroke="#8ec48e" stroke-width="1.2" marker-end="url(#arrB)"/>
<line x1="630" y1="607" x2="630" y2="622" stroke="#8ec48e" stroke-width="1.2" marker-end="url(#arrB)"/>

<text x="180" y="618" font-size="8" fill="#8ec48e">contribution</text>
<text x="638" y="618" font-size="8" fill="#8ec48e">entitlement</text>

<!-- ══════════════════════════════════════════════════════════
     A2_Q2_CONT
══════════════════════════════════════════════════════════ -->
<rect x="110" y="623" width="320" height="44" rx="6" fill="#111009" stroke="#8ec48e" stroke-width="1.6"/>
<text x="270" y="640" text-anchor="middle" font-size="9" fill="#8ec48e" letter-spacing="1">A2_Q2_CONT  question  ◆</text>
<text x="270" y="659" text-anchor="middle" font-size="11" font-weight="bold" fill="#ede6d8">What was driving it?</text>

<!-- ══════════════════════════════════════════════════════════
     A2_Q2_ENT
══════════════════════════════════════════════════════════ -->
<rect x="470" y="623" width="320" height="44" rx="6" fill="#111009" stroke="#8ec48e" stroke-width="1.6"/>
<text x="630" y="640" text-anchor="middle" font-size="9" fill="#8ec48e" letter-spacing="1">A2_Q2_ENT  question  ◆</text>
<text x="630" y="659" text-anchor="middle" font-size="11" font-weight="bold" fill="#ede6d8">What did you do with that feeling?</text>

<line x1="270" y1="667" x2="270" y2="684" stroke="#8ec48e" stroke-width="1.2" marker-end="url(#arrB)"/>
<line x1="630" y1="667" x2="630" y2="684" stroke="#8ec48e" stroke-width="1.2" marker-end="url(#arrB)"/>

<!-- ══════════════════════════════════════════════════════════
     A2_R_CONT
══════════════════════════════════════════════════════════ -->
<rect x="110" y="685" width="320" height="44" rx="6" fill="#2a2010" stroke="#c8a96a" stroke-width="1"/>
<text x="270" y="702" text-anchor="middle" font-size="9" fill="#c8a96a" letter-spacing="1">A2_R_CONT  reflection  ◆</text>
<text x="270" y="721" text-anchor="middle" font-size="11" fill="#ede6d8">Today's story has some generosity…</text>

<!-- ══════════════════════════════════════════════════════════
     A2_R_ENT
══════════════════════════════════════════════════════════ -->
<rect x="470" y="685" width="320" height="44" rx="6" fill="#2a2010" stroke="#c8a96a" stroke-width="1"/>
<text x="630" y="702" text-anchor="middle" font-size="9" fill="#c8a96a" letter-spacing="1">A2_R_ENT  reflection  ◆</text>
<text x="630" y="721" text-anchor="middle" font-size="11" fill="#ede6d8">They compete for the same attention…</text>

<!-- Converge → BRIDGE_2_3 -->
<line x1="270" y1="729" x2="270" y2="744" stroke="#8ec48e" stroke-width="1"/>
<line x1="630" y1="729" x2="630" y2="744" stroke="#8ec48e" stroke-width="1"/>
<line x1="270" y1="744" x2="630" y2="744" stroke="#8ec48e" stroke-width="1"/>
<line x1="450" y1="744" x2="450" y2="756" stroke="#b898c8" stroke-width="1.4" marker-end="url(#arrC)"/>

<!-- ══════════════════════════════════════════════════════════
     BRIDGE_2_3
══════════════════════════════════════════════════════════ -->
<rect x="310" y="757" width="280" height="36" rx="6" fill="#1c1a14" stroke="#2e2b21" stroke-width="1"/>
<text x="450" y="772" text-anchor="middle" font-size="9" fill="#4a4438" letter-spacing="1">BRIDGE_2_3  bridge</text>
<text x="450" y="787" text-anchor="middle" font-size="11" fill="#9a9080">Who else was in the frame?</text>

<line x1="450" y1="793" x2="450" y2="808" stroke="#b898c8" stroke-width="1.4" marker-end="url(#arrC)"/>

<!-- ══════════════════════════════════════════════════════════
     A3_Q1
══════════════════════════════════════════════════════════ -->
<rect x="310" y="809" width="280" height="44" rx="6" fill="#111009" stroke="#b898c8" stroke-width="1.2"/>
<text x="450" y="826" text-anchor="middle" font-size="9" fill="#b898c8" letter-spacing="1">A3_Q1  question</text>
<text x="450" y="845" text-anchor="middle" font-size="12" font-weight="bold" fill="#ede6d8">Who is in that memory?</text>

<!-- A3_Q1 → decision → split -->
<line x1="450" y1="853" x2="450" y2="862" stroke="#4a4438" stroke-width="1"/>
<line x1="300" y1="862" x2="600" y2="862" stroke="#2e2b21" stroke-width="1"/>
<line x1="300" y1="862" x2="300" y2="877" stroke="#b898c8" stroke-width="1.2" marker-end="url(#arrC)"/>
<line x1="600" y1="862" x2="600" y2="877" stroke="#b898c8" stroke-width="1.2" marker-end="url(#arrC)"/>
<text x="218" y="873" font-size="8" fill="#b898c8">self-centric</text>
<text x="608" y="873" font-size="8" fill="#b898c8">altrocentric</text>

<!-- ══════════════════════════════════════════════════════════
     A3_Q2_SELF
══════════════════════════════════════════════════════════ -->
<rect x="130" y="878" width="340" height="44" rx="6" fill="#111009" stroke="#b898c8" stroke-width="1.6"/>
<text x="300" y="895" text-anchor="middle" font-size="9" fill="#b898c8" letter-spacing="1">A3_Q2_SELF  question  ◆</text>
<text x="300" y="914" text-anchor="middle" font-size="11" font-weight="bold" fill="#ede6d8">Anyone else shaped by how it went?</text>

<!-- ══════════════════════════════════════════════════════════
     A3_Q2_ALTO
══════════════════════════════════════════════════════════ -->
<rect x="430" y="878" width="340" height="44" rx="6" fill="#111009" stroke="#b898c8" stroke-width="1.6"/>
<text x="600" y="895" text-anchor="middle" font-size="9" fill="#b898c8" letter-spacing="1">A3_Q2_ALTO  question  ◆</text>
<text x="600" y="914" text-anchor="middle" font-size="11" font-weight="bold" fill="#ede6d8">Their experience vs your own?</text>

<line x1="300" y1="922" x2="300" y2="940" stroke="#b898c8" stroke-width="1.2" marker-end="url(#arrC)"/>
<line x1="600" y1="922" x2="600" y2="940" stroke="#b898c8" stroke-width="1.2" marker-end="url(#arrC)"/>

<!-- ══════════════════════════════════════════════════════════
     A3_R_SELF
══════════════════════════════════════════════════════════ -->
<rect x="130" y="941" width="340" height="44" rx="6" fill="#2a2010" stroke="#c8a96a" stroke-width="1"/>
<text x="300" y="958" text-anchor="middle" font-size="9" fill="#c8a96a" letter-spacing="1">A3_R_SELF  reflection  ◆</text>
<text x="300" y="977" text-anchor="middle" font-size="11" fill="#ede6d8">The frame was too small…</text>

<!-- ══════════════════════════════════════════════════════════
     A3_R_ALTO
══════════════════════════════════════════════════════════ -->
<rect x="430" y="941" width="340" height="44" rx="6" fill="#2a2010" stroke="#c8a96a" stroke-width="1"/>
<text x="600" y="958" text-anchor="middle" font-size="9" fill="#c8a96a" letter-spacing="1">A3_R_ALTO  reflection  ◆</text>
<text x="600" y="977" text-anchor="middle" font-size="11" fill="#ede6d8">We instead of just I…</text>

<!-- Converge → SUMMARY -->
<line x1="300" y1="985" x2="300" y2="998" stroke="#b898c8" stroke-width="1"/>
<line x1="600" y1="985" x2="600" y2="998" stroke="#b898c8" stroke-width="1"/>
<line x1="300" y1="998" x2="600" y2="998" stroke="#b898c8" stroke-width="1"/>
<line x1="450" y1="998" x2="450" y2="1006" stroke="#4a4438" stroke-width="1.4" marker-end="url(#arr)"/>

<!-- ══════════════════════════════════════════════════════════
     SUMMARY + END
══════════════════════════════════════════════════════════ -->
<rect x="310" y="1007" width="280" height="44" rx="6" fill="#1c1a14" stroke="#9a9080" stroke-width="1.2"/>
<text x="450" y="1025" text-anchor="middle" font-size="9" fill="#9a9080" letter-spacing="1">SUMMARY  →  END</text>
<text x="450" y="1043" text-anchor="middle" font-size="11" fill="#ede6d8">3-axis session summary</text>

</svg>